<mxfile host="app.diagrams.net" agent="Mozilla/5.0 (Windows NT 10.0; Win64; x64) AppleWebKit/537.36 (KHTML, like Gecko) Chrome/131.0.0.0 Safari/537.36 Edg/131.0.0.0" version="25.0.3">
  <diagram name="第 1 页" id="mMuO-To2UXfpXY_WQuYA">
    <mxGraphModel dx="784" dy="1133" grid="1" gridSize="10" guides="1" tooltips="1" connect="1" arrows="1" fold="1" page="1" pageScale="1" pageWidth="5000" pageHeight="5000" math="0" shadow="0">
      <root>
        <mxCell id="0" />
        <mxCell id="1" parent="0" />
        <mxCell id="MIiEvwz3mjyiy-l0bOhD-12" style="edgeStyle=orthogonalEdgeStyle;rounded=0;orthogonalLoop=1;jettySize=auto;html=1;fontSize=16;" edge="1" parent="1" source="MIiEvwz3mjyiy-l0bOhD-1" target="MIiEvwz3mjyiy-l0bOhD-3">
          <mxGeometry relative="1" as="geometry" />
        </mxCell>
        <mxCell id="MIiEvwz3mjyiy-l0bOhD-32" value="登录" style="edgeLabel;html=1;align=center;verticalAlign=middle;resizable=0;points=[];fontSize=16;" vertex="1" connectable="0" parent="MIiEvwz3mjyiy-l0bOhD-12">
          <mxGeometry x="0.05" relative="1" as="geometry">
            <mxPoint y="-20" as="offset" />
          </mxGeometry>
        </mxCell>
        <mxCell id="MIiEvwz3mjyiy-l0bOhD-1" value="系统管理员" style="rounded=1;whiteSpace=wrap;html=1;fontSize=16;" vertex="1" parent="1">
          <mxGeometry x="80" y="160" width="120" height="60" as="geometry" />
        </mxCell>
        <mxCell id="MIiEvwz3mjyiy-l0bOhD-11" style="edgeStyle=orthogonalEdgeStyle;rounded=0;orthogonalLoop=1;jettySize=auto;html=1;fontSize=16;" edge="1" parent="1" source="MIiEvwz3mjyiy-l0bOhD-3" target="MIiEvwz3mjyiy-l0bOhD-4">
          <mxGeometry relative="1" as="geometry" />
        </mxCell>
        <mxCell id="MIiEvwz3mjyiy-l0bOhD-21" style="edgeStyle=orthogonalEdgeStyle;rounded=0;orthogonalLoop=1;jettySize=auto;html=1;entryX=0;entryY=0.5;entryDx=0;entryDy=0;fontSize=16;" edge="1" parent="1" source="MIiEvwz3mjyiy-l0bOhD-3" target="MIiEvwz3mjyiy-l0bOhD-6">
          <mxGeometry relative="1" as="geometry" />
        </mxCell>
        <mxCell id="MIiEvwz3mjyiy-l0bOhD-22" style="edgeStyle=orthogonalEdgeStyle;rounded=0;orthogonalLoop=1;jettySize=auto;html=1;entryX=0;entryY=0.5;entryDx=0;entryDy=0;fontSize=16;" edge="1" parent="1" source="MIiEvwz3mjyiy-l0bOhD-3" target="MIiEvwz3mjyiy-l0bOhD-18">
          <mxGeometry relative="1" as="geometry" />
        </mxCell>
        <mxCell id="MIiEvwz3mjyiy-l0bOhD-23" style="edgeStyle=orthogonalEdgeStyle;rounded=0;orthogonalLoop=1;jettySize=auto;html=1;entryX=0;entryY=0.5;entryDx=0;entryDy=0;fontSize=16;" edge="1" parent="1" source="MIiEvwz3mjyiy-l0bOhD-3" target="MIiEvwz3mjyiy-l0bOhD-19">
          <mxGeometry relative="1" as="geometry" />
        </mxCell>
        <mxCell id="MIiEvwz3mjyiy-l0bOhD-37" value="根据&lt;div&gt;拥有&lt;div&gt;的操&lt;/div&gt;&lt;div&gt;作权&lt;/div&gt;&lt;div&gt;限完&lt;/div&gt;&lt;div&gt;成各&lt;/div&gt;&lt;div&gt;项操&lt;/div&gt;&lt;div&gt;作&lt;/div&gt;&lt;/div&gt;" style="edgeLabel;html=1;align=center;verticalAlign=middle;resizable=0;points=[];fontSize=16;" vertex="1" connectable="0" parent="MIiEvwz3mjyiy-l0bOhD-23">
          <mxGeometry x="-0.1185" y="-1" relative="1" as="geometry">
            <mxPoint x="-29" y="21" as="offset" />
          </mxGeometry>
        </mxCell>
        <mxCell id="MIiEvwz3mjyiy-l0bOhD-28" style="edgeStyle=orthogonalEdgeStyle;rounded=0;orthogonalLoop=1;jettySize=auto;html=1;entryX=0;entryY=0.5;entryDx=0;entryDy=0;fontSize=16;" edge="1" parent="1" source="MIiEvwz3mjyiy-l0bOhD-3" target="MIiEvwz3mjyiy-l0bOhD-5">
          <mxGeometry relative="1" as="geometry" />
        </mxCell>
        <mxCell id="MIiEvwz3mjyiy-l0bOhD-3" value="登录" style="rounded=0;whiteSpace=wrap;html=1;fontSize=16;" vertex="1" parent="1">
          <mxGeometry x="280" y="160" width="120" height="60" as="geometry" />
        </mxCell>
        <mxCell id="MIiEvwz3mjyiy-l0bOhD-4" value="系统管理" style="rounded=0;whiteSpace=wrap;html=1;fontSize=16;" vertex="1" parent="1">
          <mxGeometry x="280" y="280" width="120" height="60" as="geometry" />
        </mxCell>
        <mxCell id="MIiEvwz3mjyiy-l0bOhD-5" value="基础条件设置" style="rounded=0;whiteSpace=wrap;html=1;fontSize=16;" vertex="1" parent="1">
          <mxGeometry x="520" y="80" width="120" height="60" as="geometry" />
        </mxCell>
        <mxCell id="MIiEvwz3mjyiy-l0bOhD-6" value="课表管理" style="rounded=0;whiteSpace=wrap;html=1;fontSize=16;" vertex="1" parent="1">
          <mxGeometry x="520" y="170" width="120" height="40" as="geometry" />
        </mxCell>
        <mxCell id="MIiEvwz3mjyiy-l0bOhD-16" style="edgeStyle=orthogonalEdgeStyle;rounded=0;orthogonalLoop=1;jettySize=auto;html=1;fontSize=16;" edge="1" parent="1" source="MIiEvwz3mjyiy-l0bOhD-7" target="MIiEvwz3mjyiy-l0bOhD-10">
          <mxGeometry relative="1" as="geometry" />
        </mxCell>
        <mxCell id="MIiEvwz3mjyiy-l0bOhD-34" value="登录" style="edgeLabel;html=1;align=center;verticalAlign=middle;resizable=0;points=[];fontSize=16;" vertex="1" connectable="0" parent="MIiEvwz3mjyiy-l0bOhD-16">
          <mxGeometry x="-0.1" y="-1" relative="1" as="geometry">
            <mxPoint y="-21" as="offset" />
          </mxGeometry>
        </mxCell>
        <mxCell id="MIiEvwz3mjyiy-l0bOhD-7" value="教师" style="rounded=1;whiteSpace=wrap;html=1;fontSize=16;" vertex="1" parent="1">
          <mxGeometry x="80" y="360" width="120" height="60" as="geometry" />
        </mxCell>
        <mxCell id="MIiEvwz3mjyiy-l0bOhD-15" style="edgeStyle=orthogonalEdgeStyle;rounded=0;orthogonalLoop=1;jettySize=auto;html=1;fontSize=16;" edge="1" parent="1" source="MIiEvwz3mjyiy-l0bOhD-8" target="MIiEvwz3mjyiy-l0bOhD-9">
          <mxGeometry relative="1" as="geometry" />
        </mxCell>
        <mxCell id="MIiEvwz3mjyiy-l0bOhD-36" value="登录" style="edgeLabel;html=1;align=center;verticalAlign=middle;resizable=0;points=[];fontSize=16;" vertex="1" connectable="0" parent="MIiEvwz3mjyiy-l0bOhD-15">
          <mxGeometry x="-0.025" y="-1" relative="1" as="geometry">
            <mxPoint y="-21" as="offset" />
          </mxGeometry>
        </mxCell>
        <mxCell id="MIiEvwz3mjyiy-l0bOhD-8" value="学生" style="rounded=1;whiteSpace=wrap;html=1;fontSize=16;" vertex="1" parent="1">
          <mxGeometry x="80" y="460" width="120" height="60" as="geometry" />
        </mxCell>
        <mxCell id="MIiEvwz3mjyiy-l0bOhD-25" style="edgeStyle=orthogonalEdgeStyle;rounded=0;orthogonalLoop=1;jettySize=auto;html=1;entryX=0;entryY=0.75;entryDx=0;entryDy=0;fontSize=16;" edge="1" parent="1" source="MIiEvwz3mjyiy-l0bOhD-9" target="MIiEvwz3mjyiy-l0bOhD-14">
          <mxGeometry relative="1" as="geometry" />
        </mxCell>
        <mxCell id="MIiEvwz3mjyiy-l0bOhD-9" value="获得操作权限" style="rounded=0;whiteSpace=wrap;html=1;fontSize=16;" vertex="1" parent="1">
          <mxGeometry x="280" y="470" width="120" height="40" as="geometry" />
        </mxCell>
        <mxCell id="MIiEvwz3mjyiy-l0bOhD-24" style="edgeStyle=orthogonalEdgeStyle;rounded=0;orthogonalLoop=1;jettySize=auto;html=1;entryX=0.017;entryY=0.371;entryDx=0;entryDy=0;entryPerimeter=0;fontSize=16;" edge="1" parent="1" source="MIiEvwz3mjyiy-l0bOhD-10" target="MIiEvwz3mjyiy-l0bOhD-14">
          <mxGeometry relative="1" as="geometry" />
        </mxCell>
        <mxCell id="MIiEvwz3mjyiy-l0bOhD-26" style="edgeStyle=orthogonalEdgeStyle;rounded=0;orthogonalLoop=1;jettySize=auto;html=1;entryX=0;entryY=0.5;entryDx=0;entryDy=0;fontSize=16;" edge="1" parent="1" source="MIiEvwz3mjyiy-l0bOhD-10" target="MIiEvwz3mjyiy-l0bOhD-19">
          <mxGeometry relative="1" as="geometry" />
        </mxCell>
        <mxCell id="MIiEvwz3mjyiy-l0bOhD-10" value="获得操作权限" style="rounded=0;whiteSpace=wrap;html=1;fontSize=16;" vertex="1" parent="1">
          <mxGeometry x="280" y="370" width="120" height="40" as="geometry" />
        </mxCell>
        <mxCell id="MIiEvwz3mjyiy-l0bOhD-14" value="查看课表" style="rounded=0;whiteSpace=wrap;html=1;fontSize=16;" vertex="1" parent="1">
          <mxGeometry x="520" y="400" width="120" height="70" as="geometry" />
        </mxCell>
        <mxCell id="MIiEvwz3mjyiy-l0bOhD-18" value="申请新课程" style="rounded=0;whiteSpace=wrap;html=1;fontSize=16;" vertex="1" parent="1">
          <mxGeometry x="520" y="250" width="120" height="40" as="geometry" />
        </mxCell>
        <mxCell id="MIiEvwz3mjyiy-l0bOhD-19" value="课表输出" style="rounded=0;whiteSpace=wrap;html=1;fontSize=16;" vertex="1" parent="1">
          <mxGeometry x="520" y="320" width="120" height="40" as="geometry" />
        </mxCell>
        <mxCell id="MIiEvwz3mjyiy-l0bOhD-20" value="添加到后台数据库" style="strokeWidth=2;html=1;shape=mxgraph.flowchart.multi-document;whiteSpace=wrap;fontSize=16;" vertex="1" parent="1">
          <mxGeometry x="730" y="170" width="120" height="100" as="geometry" />
        </mxCell>
        <mxCell id="MIiEvwz3mjyiy-l0bOhD-29" style="edgeStyle=orthogonalEdgeStyle;rounded=0;orthogonalLoop=1;jettySize=auto;html=1;entryX=0;entryY=0.5;entryDx=0;entryDy=0;entryPerimeter=0;fontSize=16;" edge="1" parent="1" source="MIiEvwz3mjyiy-l0bOhD-18" target="MIiEvwz3mjyiy-l0bOhD-20">
          <mxGeometry relative="1" as="geometry" />
        </mxCell>
        <mxCell id="MIiEvwz3mjyiy-l0bOhD-30" style="edgeStyle=orthogonalEdgeStyle;rounded=0;orthogonalLoop=1;jettySize=auto;html=1;entryX=0;entryY=0.5;entryDx=0;entryDy=0;entryPerimeter=0;fontSize=16;" edge="1" parent="1" source="MIiEvwz3mjyiy-l0bOhD-6" target="MIiEvwz3mjyiy-l0bOhD-20">
          <mxGeometry relative="1" as="geometry" />
        </mxCell>
        <mxCell id="MIiEvwz3mjyiy-l0bOhD-31" style="edgeStyle=orthogonalEdgeStyle;rounded=0;orthogonalLoop=1;jettySize=auto;html=1;entryX=0;entryY=0.5;entryDx=0;entryDy=0;entryPerimeter=0;fontSize=16;" edge="1" parent="1" source="MIiEvwz3mjyiy-l0bOhD-5" target="MIiEvwz3mjyiy-l0bOhD-20">
          <mxGeometry relative="1" as="geometry" />
        </mxCell>
      </root>
    </mxGraphModel>
  </diagram>
</mxfile>
